<?xml version="1.0" encoding="UTF-8"?>
<svg id="_Layer_" data-name="&amp;lt;Layer&amp;gt;" xmlns="http://www.w3.org/2000/svg" viewBox="0 0 2574.99 1321.52">
  <defs>
    <style>
      .cls-1 {
        fill: #2a4e96;
      }

      .cls-2 {
        fill: #82b378;
      }

      .cls-3 {
        fill: #80bdcc;
      }

      .cls-4 {
        fill: #5f9aa8;
      }

      .cls-5 {
        fill: #a16d3c;
      }

      .cls-6 {
        fill: #ffb07b;
      }

      .cls-7 {
        fill: #c3e0f4;
      }

      .cls-8 {
        fill: #4a75cb;
      }

      .cls-9 {
        fill: #f1a34f;
      }

      .cls-10 {
        fill: #2e3552;
      }

      .cls-11 {
        fill: #ea8e50;
      }

      .cls-12 {
        fill: #acd29a;
      }

      .cls-13 {
        fill: #c65447;
      }

      .cls-14 {
        fill: #1e3d70;
      }

      .cls-15 {
        fill: #ebf2f9;
      }

      .cls-16 {
        fill: #35488b;
      }

      .cls-17 {
        fill: #e69d43;
      }

      .cls-18 {
        fill: #2c3a64;
      }

      .cls-19 {
        fill: #d86713;
      }

      .cls-20 {
        fill: #365da4;
      }

      .cls-21 {
        fill: #935c2f;
      }

      .cls-22 {
        fill: #d3782f;
      }

      .cls-23 {
        fill: #233862;
      }

      .cls-24 {
        fill: #699dee;
      }

      .cls-25 {
        fill: #2b478b;
      }
    </style>
  </defs>
  <path class="cls-15" d="m341.91,1314.02s-497.43-497.86-188.52-795.54c308.91-297.67,553.06,88.76,721.91,60.29C1089.02,542.74,1181.45.52,1500.95,0c363.53-.59,630.36,214.32,488.23,726.12-104.83,377.49,615.73,68.36,509.9,595.24l-2157.18-7.34Z"/>
  <path class="cls-12" d="m1426.83,1249.33c-67.62-10.88-118.67,12.81-167.76,6-39.15-5.43-59.55-45.04-112.16-56.26,12.51-7.38,27.09-16.61,34.06-23.32,13.54-13.04,32.99-39.12,0-40.15-23.73-.74-42.21,38.79-50.72,61.03-7.79-.65-16.22-.7-25.41-.03,10.86-35,32.03-102.74,37.21-115.75,7.05-17.71-22.56-76.75-57.45-10.49-24.47,46.47-7.85,100.18,4.25,128.11-9.56,1.54-18.58,3.77-27.2,6.46-28.84-65.78-120.56-253.34-220-230.03-108.4,25.41,123.84,151.49,182.41,244.98-47.85,22.18-89.89,49.12-162.57,29.45-193.14-52.29-208.46,65.36-208.46,65.36l863.11.29s-21.71-54.77-89.33-65.66Z"/>
  <g>
    <path class="cls-6" d="m1192.04,825.99c.89,8.31,12.64,8.01,25.92,6.02,13.28-1.99,9.85,1.5,28.53,1.14,18.68-.36,24.91-6.75,25.72-9.44.73-2.39-8.33-4.09-18.03-6.11-1.22-.25-2.44-.52-3.67-.78-10.94-2.4-18.39-10.28-27.91-17.06-9.01-6.42-15.09-35.85-15.09-35.85l-26.55-.16s8.34,26.62,12.69,35.87c2.56,5.44-.17,12.43-1.02,17.68-.46,2.85-.91,5.77-.6,8.69Z"/>
    <path class="cls-20" d="m1217.96,832c13.28-1.99,9.85,1.5,28.53,1.14,18.68-.36,24.91-6.75,25.72-9.44.73-2.39-8.33-4.09-18.03-6.11l-.11.18s-11.81,6.85-27.23,5.82c-12.57-.84-25.53-5.65-34.21-6.29-.46,2.85-.91,5.77-.6,8.69.89,8.31,12.64,8.01,25.92,6.02Z"/>
    <path class="cls-6" d="m984.46,824.67c.58,8.33,12.33,8.48,25.68,6.99,13.35-1.49,9.79,1.87,28.46,2.21,18.68.34,25.14-5.8,26.06-8.47.82-2.37-8.17-4.4-17.79-6.79-1.21-.3-2.42-.61-3.64-.92-10.84-2.81-17.99-10.96-27.24-18.09-8.77-6.76-1.55-34.79-1.55-34.79l-20.15-9.51s-2.77,28.89-4.27,43.5c-.61,5.98-3.59,11.99-4.65,17.2-.57,2.83-1.13,5.73-.92,8.66Z"/>
    <path class="cls-20" d="m1010.14,831.66c13.35-1.49,9.79,1.87,28.46,2.21,18.68.34,25.14-5.8,26.06-8.47.82-2.37-8.17-4.4-17.79-6.79l-.12.18s-12.06,6.4-27.43,4.79c-12.53-1.31-25.3-6.6-33.95-7.58-.57,2.83-1.13,5.73-.92,8.66.58,8.33,12.33,8.48,25.68,6.99Z"/>
    <path class="cls-25" d="m1029.72,408.67s-5.58,27.02-11.17,164.06c0,0-10.37,25.37-17.88,56.4-7.52,31.02-12.83,160.48-12.83,160.48,0,0,3,4.32,12.1,4.87,7.43.45,13.22-2.81,13.22-2.81,0,0,52.27-169.56,77.72-235.38,25.44-65.83,40.35-159.82,40.35-159.82l-101.51,12.21Z"/>
    <path class="cls-25" d="m1092.58,420.24s4.12,27.28,46.32,157.78c0,0-.94,27.39,2.75,59.1,3.69,31.71,46.4,156.56,46.4,156.56,0,0,5.67,1.97,14.18-.28,7.91-2.09,14.11-6.85,14.11-6.85,0,0-16.38-178.44-15.3-249.01,1.08-70.56-17.48-163.91-17.48-163.91l-91,46.6Z"/>
    <path class="cls-13" d="m1167.32,42.3c-6.62-4.21-14.75-5.04-20.48-4.99,1.55-1.44,4.46-1.85,4.46-1.85-3.51-.7-11.59,2.41-11.59,2.41-48.27-21.43-59.63,50.66-59.44,67.55.19,16.89-.66,36.28-25.99,50.15-49.83,27.3-11.63,81.21-11.63,81.21-8.97,25.74,24.24,57.27,24.24,57.27-.56-13.67,62.18-100.75,96.01-120.62,8.56-11.34,12.43-31.94,12.73-33.56-2.2,16.37-5.47,25.46-8.25,30.52,29.01-24.14,17.46-116.94-.07-128.1Z"/>
    <path class="cls-6" d="m1156.81,164.1c.17.08-15.83,8.38-27.86,5.09-11.32-3.08-18.72-17.77-18.56-17.8,4.79-.95,6.18-7.54,6.08-35.84l2.17.43,35.13,6.96,1.31.25s-.83,11.47-.86,22.27c0,2.29.03,4.54.11,6.65.24,6.27.93,11.26,2.49,11.99Z"/>
    <path class="cls-11" d="m1154.21,145.46c0,2.29.03,4.54.11,6.65-20.43-.82-32.21-24.19-36.66-34.44l36.1,5.27,1.31.25s-.83,11.47-.86,22.27Z"/>
    <path class="cls-13" d="m1114.86,112.01s-10.69-16.88-13.25-31.32c-1.83-10.31,3.42-48.51,41.81-43.01,0,0,11.15,1.1,21.63,8.18,8.34,5.63,20.37,17.78,6.91,51.12l-3.49,11.26-53.62,3.77Z"/>
    <path class="cls-6" d="m1157.21,140.17s-47.83-6.32-43.44-36.05c4.4-29.73,1.18-50.57,31.91-47.79,30.73,2.78,34.97,15,35.92,25.28s-11.83,59.44-24.39,58.56Z"/>
    <path class="cls-13" d="m1167.53,58.84s-18.26,32.92-39.08,35.09c-20.82,2.17-28.72-4.5-28.72-4.5,0,0,17.2-9.93,23.57-30.78,0,0,36.84-17.88,44.22.18Z"/>
    <path class="cls-13" d="m1163.87,61.19s8.6,9.24,9.85,17.16c1.25,7.92,0,23.66,4.62,23.81,0,0,13.38-22.24,4.31-37.29-9.61-15.97-18.78-3.68-18.78-3.68Z"/>
    <path class="cls-19" d="m1481.53,465.09c-10.04-21.26-37.93-38.85-61.44-38.85-17.36,0-32.67,5.92-44.52,15.57-6.77,5.52-16.99,1.88-18.83-6.66l-20.57-95.59c-3-13.94-16.73-22.81-30.67-19.81l-332.91,71.65c-13.62,2.93-22.28,16.35-19.35,29.97l71.57,332.55c2.05,9.51,9.02,16.69,17.67,19.44l-4.37,1.24h12.92l.11-.02c1.58-.05,3.18-.23,4.78-.57l7.25-1.56h0l85.44-18.39c11.99-2.58,16.86-17.09,8.8-26.33-7.78-8.93-13.38-20-15.77-32.53-6.72-35.32,15.11-70.3,49.81-79.71,38.6-10.46,77.58,13.64,85.89,52.23,3.12,14.52,1.45,28.95-3.96,41.65-2.1,4.93-.36,10.06,3.25,12.98l-4.98,2.43h11.55c.86.01,1.76-.06,2.67-.26l102.02-21.96c13.94-3,22.82-16.74,19.81-30.68l-20.45-95c-1.89-8.79,6.12-16.5,14.84-14.26,10.07,2.59,20.88,2.94,31.74.6,42.69-9.19,67.64-55.91,47.71-98.13Z"/>
    <path class="cls-9" d="m1408.33,426.24c-17.36,0-32.67,5.92-44.52,15.57-6.77,5.52-16.99,1.88-18.83-6.66l-20.57-95.59c-3-13.94-16.73-22.81-30.67-19.81l-332.91,71.65c-13.62,2.93-22.28,16.35-19.35,29.97l71.57,332.55c3.04,14.14,16.97,23.13,31.11,20.09l92.69-19.95c11.99-2.58,16.86-17.09,8.8-26.33-7.78-8.93-13.38-20-15.77-32.53-6.72-35.32,15.11-70.3,49.81-79.71,38.6-10.46,77.58,13.64,85.89,52.23,3.13,14.52,1.45,28.95-3.96,41.65-3.52,8.25,3.71,17.04,12.47,15.15l102.02-21.96c13.94-3,22.81-16.74,19.81-30.68l-20.45-95c-1.89-8.79,6.13-16.5,14.84-14.26,10.07,2.59,20.88,2.94,31.74.6,42.69-9.19,67.64-55.91,47.71-98.13-10.04-21.26-37.93-38.85-61.44-38.85Z"/>
    <path class="cls-6" d="m1286.53,299.82s20.76,3.4,26.21,16.91-2.16,22.65-5.08,22.62c-2.92-.03-8.53-2.19-11.15-9.2-2.62-7-9.97-30.33-9.97-30.33Z"/>
    <path class="cls-6" d="m1000.66,360.07s23.31-.03,31.7,13.75c8.38,13.78,1.73,25.14-1.47,25.64-3.2.49-9.71-.86-13.85-8.04-4.13-7.18-16.38-31.35-16.38-31.35Z"/>
    <path class="cls-3" d="m1287.11,315.49c-2.07-.44-11.1-1.5-22.6-3.31-21.16-3.32-50.67-9.17-60.57-18.3-2.68-2.48-8.93-16.12-15.42-31.76-6.57,34.62-6.93,61.18-5.19,81.39l-143.04,30.79c12.27-24.8,31.25-55.54,27.69-80.42-1.32-9.22-6.37-21.88-8.26-36.1-.16-1.22-.29-2.45-.4-3.69-20.06,16.51-43.24,34.73-43.79,38.38-.92,6.11,14.7,73.73,14.7,73.73-3.88,8.93-20.72,7.05-20.72,7.05-15.79-11.27-39-75.15-37.14-89.3,1.86-14.15,59.41-94.8,73.35-114.07,13.76-19.05,64-18.57,65.21-18.56h.03c39.95,23.99,43.55,4.05,43.55,4.05,0,0,36.05,6.86,42.24,17.5,6.2,10.65,33.36,91.4,35.28,94.25,4.02,5.95,69.69,29.74,70.87,36.63,1.19,6.89-9.9,13-15.79,11.75Z"/>
    <path class="cls-4" d="m1090.17,363.61l-49.88,10.69c12.42-24.73,28.74-55.52,25.17-80.25-1.34-9.23-4.33-20.16-5.77-34.44-.14-1.38-.38-5.52-.38-5.52,0,0,35.32,27.8,35.94,57.88.32,15.61-2.4,36.02-5.09,51.64Z"/>
    <path class="cls-4" d="m1265.84,312.36c-21.42-3.33-51.29-9.17-61.31-18.31-2.72-2.48-9.04-16.14-15.61-31.8,0,0-2.3-25.17,4.28-24.23,6.58.94,16.26,45.58,23.17,48.4,6.18,2.53,40.37,15.65,49.48,25.93Z"/>
  </g>
  <g id="man">
    <g>
      <path class="cls-18" d="m2321.09,1271.28c-3.02,10.17-16.96,16.96-18.84,29.39-.92,6.07-3.18,10.79-6.05,14.03h-43.4c.43-2.39,2.34-4.96,7.98-6.2,12.05-2.64,16.6-17.25,15.85-30.81-.31-5.69-.17-12.17.11-17.78.38-7.77,1.02-13.87,1.02-13.87l25.62-6.03,2.69,3.46,2.58,3.32s15.45,14.31,12.44,24.49Z"/>
      <path class="cls-18" d="m2118.99,1314.7h-87.81c1.99-2.33,5.36-4.58,11.07-5.51,13.51-2.19,36.92-10.04,42.13-27.31.17-.55.32-1.12.45-1.7,4.14-18.46,34.29,5.65,34.29,5.65,0,0,.09.74.23,2,.53,5.19,1.7,19.29-.37,26.87Z"/>
      <path class="cls-16" d="m2045.84,825.53s4.58,57.12,9.96,125.78c7.31,93.27,16.11,207.84,16.98,229.54,1.5,37.69,7.54,97.97,7.54,97.97,0,0,14.31,14.32,42.96,8.29,0,0,25.52-86.06,32.82-177.11.11-1.49.23-3,.34-4.5,6.78-92.69,17.33-287.88,17.33-287.88l-127.92,7.91Z"/>
      <path class="cls-18" d="m2045.84,825.53s4.58,57.12,9.96,125.78l100.29,158.69c.11-1.49.23-3,.34-4.5,6.78-92.69,17.33-287.88,17.33-287.88l-127.92,7.91Z"/>
      <path class="cls-16" d="m2066.75,832.31s82.52,206.87,136.78,304.08c54.26,97.21,71.22,124.35,71.22,124.35,0,0,31.09-12.43,33.91-20.91,0,0-20.75-187.68-57.09-233.43-20.53-25.85-44.65-103.43-45.78-130.56-1.13-27.13-7.35-80.82-7.35-80.82l-131.69,37.3Z"/>
    </g>
    <path class="cls-21" d="m2109.07,512.99c-3.67-21.66-3.78-34.5-3.78-34.5l41.87-33.74c-1.56,46.4,28.17,68.71,28.17,68.71,0,0-55.79,27.46-88.04,17.29,0,0,7.94-10.15,21.78-17.75Z"/>
    <path class="cls-5" d="m2095.43,477.72s53.26,8.85,58.26-24.41,15.24-54.51-18.55-61.57c-33.8-7.06-42.33,4.64-46.7,15.33-4.37,10.69-6.74,67.48,6.99,70.64Z"/>
    <g>
      <path class="cls-5" d="m1908.35,546.28l-11.34-7.02s-14.14-20.87-38.29-7.9c0,0-9.57,6.1-3.15,11.21,6.42,5.11,4.69,2.22,13.59,9.62,8.89,7.4,20.4,10.04,27.82,5.96l9.52-.9,1.84-10.96Z"/>
      <path class="cls-22" d="m1894.89,548.46c2.92-9.14,4.31-9.94,4.31-9.94,0,0,91.71,10.84,100.35,11.48,8.65.64,128.71-24.1,128.71-24.1l56.69,68.84s-167.15,6.3-189.02,4.25c-36.15-3.39-101.7-37.04-101.7-37.04,0,0-1.63-6.31.66-13.49Z"/>
    </g>
    <path class="cls-17" d="m2204.73,805.58c.16,3.55-7.16,7.45-10.34,8.88-23.94,10.73-46.23,18.19-71.42,20.61-29.88,3.06-65.19-3.66-77.3-3.5-1.3,0-2.42-.48-3.39-1.29-.81-.65-1.46-37.14-.81-83.16,0-1.78,0-3.72.16-5.5v-.64c.05-4.79.12-9.66.23-14.58.3-13.45.81-27.26,1.39-40.98.88-20.23,2.08-40.11,3.74-57.72,1.74-18.39,3.95-34.33,6.76-45.62,6.46-26,21.32-43.12,34.88-55.72l11.14-9.84c11.14,2.26,22.93,1.61,34.72-4.2,12.75-6.3,26.65-13.08,28.9-11.47,17.22,12.87,28.81,42.08,34.75,79.21,3.2,19.98,4.76,42.25,4.67,65.5-.04,8.92-.31,17.97-.83,27.11-2.88,49.03.08,91.55,1.77,116.25.49,7.11.88,12.75.99,16.65Z"/>
    <path class="cls-8" d="m1921.58,352.29l-336.85-53.5c-14.32-2.28-27.78,7.49-30.05,21.81l-14.91,93.89c-.69,4.35.41,16.57.41,16.57l12.14,1.81c.69.15,1.39.26,2.1.31h0c2.2.18,4.49-.1,6.78-.92,11.17-4.04,23.54-5.27,36.13-2.96,35.46,6.5,60.26,39.59,56.49,75.44-4.2,39.88-40.85,67.6-79.94,61.39-14.71-2.34-27.6-9.13-37.51-18.79-1.92-1.87-4.24-2.86-6.57-3.1h0l-12.7-1.91-15.82,114.53c-2.24,14.12,7.39,27.39,21.51,29.64l96.23,15.28c8.9,1.41,13.21,11.7,7.96,19.03-6.07,8.48-10.31,18.46-12.05,29.46-6.87,43.24,27.78,83.49,74.47,80.14,23.51-1.69,50.05-21.4,58.57-43.38,6.29-16.23,6.3-32.69,1.56-47.26-2.71-8.33,4.4-16.57,13.05-15.19l96.83,15.38c14.12,2.24,27.38-7.38,29.62-21.5l53.55-337.22c2.19-13.79-7.22-26.75-21.01-28.94Z"/>
    <path class="cls-22" d="m2164.62,579.07s-25.82,120.49-122.76,147.34c.3-13.45.81-27.26,1.39-40.98.88-20.23,2.08-40.11,3.74-57.72,1.73-.89,3.36-1.59,4.84-2.08,32.9-10.85,112.79-46.56,112.79-46.56Z"/>
    <path class="cls-24" d="m1735.52,785.15c6.29-16.23,6.3-32.69,1.56-47.26-2.71-8.33,4.4-16.57,13.05-15.19l96.82,15.38c14.12,2.24,27.38-7.39,29.62-21.5l53.55-337.22c2.19-13.79-7.22-26.75-21.01-28.94l-336.85-53.5c-14.32-2.27-27.78,7.49-30.05,21.81l-14.91,93.89c-1.93,12.15,9.87,21.95,21.44,17.77,11.17-4.04,23.54-5.27,36.12-2.96,35.46,6.5,60.26,39.59,56.49,75.44-4.2,39.88-40.84,67.6-79.94,61.39-14.71-2.34-27.59-9.13-37.51-18.79-6.44-6.28-17.27-2.7-18.68,6.18l-16.41,103.34c-2.24,14.12,7.39,27.39,21.51,29.64l96.23,15.28c8.91,1.41,13.21,11.7,7.96,19.03-6.07,8.48-10.31,18.46-12.05,29.46-6.87,43.24,27.78,83.49,74.47,80.14,23.51-1.69,50.06-21.4,58.57-43.38Z"/>
    <g>
      <path class="cls-5" d="m1908.75,623.96l-13.85-2.29s-15.79-22.85-43.31-10.03c0,0-10.91,6.1-3.7,11.82,7.22,5.71,5.3,2.56,15.29,10.83,10,8.26,23.01,11.56,31.47,7.52l10.8-.56,3.3-17.28Z"/>
      <path class="cls-17" d="m1898.16,631c.45-10.19,5.88-11.28,5.88-11.28,0,0,104.91-6.94,113.96-8.69,9.05-1.76,92.61-70.99,92.61-70.99,0,0,32.31-29.04,54.95-19.24,19.67,8.52,25.83,25.32,26.82,40.77,1.18,18.41-9.2,35.63-25.92,43.43-37.53,17.53-112.58,51.93-129.67,54.9-38.04,6.61-135.81-14.57-135.81-14.57,0,0-3.17-6.33-2.82-14.33Z"/>
    </g>
    <path class="cls-18" d="m2088.44,407.08s-21.62-16.03-7.52-40.94c0,0,17.01,5.64,41.16,0,24.16-5.64,45.78,2.35,48.6,10.81,0,0,9.4,3.76,10.34,17.86.94,14.1-27.33,58.51-27.33,58.51,0,0-6.04-7.52-4.39-12.69,1.64-5.17,6.81-16.68.47-16.68s-8.46,9.4-11.04,5.64c-2.58-3.76,2.12-19.5-5.4-22.09-7.52-2.58-36.42,4.34-44.88-.42Z"/>
  </g>
  <path class="cls-7" d="m1353.67,1302.7l-95.22-432.33h26.21c6.21,0,11.29-5.08,11.29-11.29v-14.6c0-6.21-5.08-11.29-11.29-11.29h-332.49c-6.21,0-11.3,5.08-11.3,11.29v14.6c0,6.21,5.08,11.29,11.3,11.29h33.74l-95.22,432.33c-1.28,5.81,2.41,11.62,8.21,12.9,5.79,1.29,11.58-2.42,12.86-8.23l96.25-437h228.33l96.25,437c1.28,5.81,7.07,9.52,12.86,8.23h0c5.8-1.28,9.49-7.09,8.21-12.9Z"/>
  <g>
    <path class="cls-12" d="m1985.1,1037.94c-35.24-33.84-162.12,179.64-162.12,179.64,0,0,197.37-145.81,162.12-179.64Z"/>
    <path class="cls-12" d="m1980.87,1136.63c-31.2-12.48-130.91,92.64-153.37,116.92-17.18-2.28-36.03-3.77-56.69-4.13-157.89-2.82-229.51,68.7-229.51,68.7l440.45,1.5s-39.02-49.54-149.7-65.44c27.04-12.77,107.04-49.97,136.13-57.13,35.24-8.67,47.93-46.32,12.69-60.41Z"/>
  </g>
  <g>
    <path class="cls-19" d="m1856.64,922.37h-95.06c-12.3,0-20.13,13.19-14.18,23.96,5.74,10.4-14.47,100.48-57.05,102.83-40.04,2.21-73.17-29.74-73.17-69.32,0-14.89,4.69-28.69,12.67-39.99,5.19-7.35-.04-17.48-9.03-17.48h-104.63c-14.3,0-25.9,11.59-25.9,25.9,0,0-9.48,112.31-17.55,108.28-8.31-4.15-17.57-6.68-27.36-7.19h0s-.09,0-.09,0c-1.17-.06-2.34-.09-3.53-.09s-18.41-.29-18.41-.29l-2.61,138.79,14.96.16c14.22-.42,26.57-1.76,37.55-7.35,7.8-3.98,17.05,1.74,17.05,10.5v98.04c0,14.29,11.59,25.88,25.88,25.88h341.44c13.97,0,25.29-11.32,25.29-25.29v-341.07c0-14.5-11.76-26.26-26.26-26.26Z"/>
    <path class="cls-9" d="m1407.9,1186.13c17.02,3.67,33.27,1.09,46.92-5.87,7.8-3.98,17.05,1.74,17.05,10.5v98.04c0,14.29,11.59,25.88,25.88,25.88h341.44c13.97,0,25.29-11.32,25.29-25.29v-341.07c0-14.5-11.76-26.26-26.26-26.26h-95.06c-12.3,0-20.13,13.19-14.18,23.96,5.74,10.4,8.9,22.43,8.59,35.21-.86,36.04-29.64,65.73-65.64,67.62-40.04,2.11-73.17-29.74-73.17-69.32,0-14.89,4.69-28.69,12.67-39.99,5.19-7.35-.04-17.48-9.03-17.48h-104.63c-14.3,0-25.9,11.59-25.9,25.9v97.43c0,9.02-9.48,14.88-17.55,10.85-9.33-4.66-19.85-7.28-30.98-7.28-43.78,0-78.1,40.53-67.47,86.12,5.35,22.95,28.99,46.08,52.03,51.05Z"/>
  </g>
  <path class="cls-12" d="m419.29,1316.6l61.37.45s-2.13-14.85-43.44-18.68h0c-16.01-44.49-63.06-164.16-103.92-158.5-40.34,5.59,55.2,115.38,94.06,158.06-5.5,0-10.62.46-15.36,1.22-9.36-18.64-27.93-44.99-57.72-43.79-31.71,1.28,11.49,30.23,41.23,48.01-15.06,5.4-23.2,12.88-23.2,12.88l46.28.34c.54.3.84.46.84.46,0,0-.05-.16-.14-.45Z"/>
  <g>
    <g>
      <path class="cls-11" d="m638.54,820.72l9.08,7.37s24.84-8.91,30.44,20.61c0,0,1.49,12.58-6.48,12.6-7.97.02-4.68-1.38-15.96-1.04-11.28.33-20.63-5.62-22.29-14.77l-5.4-7.76,10.6-17.01Z"/>
      <path class="cls-14" d="m637.51,836.54c7.24-7.56,6.66-13.15,6.66-13.15,0,0-83.88-68.68-92.39-74.27-5.8-3.81-67.57-58.58-96.45-91.97-14.32-16.56-32.07-10.13-52.37-4.31l-16.72,4.8c-20.19,5.79-25.44,34.02-8.87,47.74,46.65,38.64,124.24,82.09,138.76,91.23,36.04,22.67,106.59,49.62,106.59,49.62,0,0,8.56-3.18,14.78-9.68Z"/>
    </g>
    <path class="cls-23" d="m735.68,1257.77s20.36,15.25,51.55,7.19c0,0,25.15-5.73,30.67,6.81,0,0-38.57,19.59-48.33,24.95-7.36,4.04-15.03,10.41-20.46,15.34-4.29,3.9-10.99,3.37-14.65-1.13-1.7-2.09-3.64-4.57-5.77-7.45-5.95-8.06-19.8-34.09-19.8-34.09l26.79-11.62Z"/>
    <path class="cls-25" d="m745.19,1250.73s-12.4,28.58-41.01,23.33c0,0-58.39-48.22-98.44-98.31-13.01-16.27-24.08-32.73-30.59-47.8-26.56-61.49-98.24-153.2-143.82-199.68l114.03-41.25s36.52,73.47,85.12,163.72c35.02,65.02,76.3,138.76,114.71,200Z"/>
    <path class="cls-23" d="m630.48,1050.73l-24.74,125.02c-13.01-16.27-24.08-32.73-30.59-47.8-26.56-61.49-98.24-153.2-143.82-199.68l114.03-41.25s36.52,73.47,85.12,163.72Z"/>
    <path class="cls-23" d="m536.98,1273.99s-1.24,22.81,26.41,25.85c0,0,15.8.08,15.84,14.6l-80.36.25s-2.33-5.86-2.9-18.4c-.43-9.63,9.33-34.81,9.33-34.81l31.67,12.5Z"/>
    <path class="cls-25" d="m507.96,887.01s50.8,55.82,83.04,156.38c17.54,54.71-32.16,192.27-41.85,240.07,0,0-33.34,2.83-56.14-5.98,0,0-1.73-98.72,11.6-174.8,7.46-42.58-66.88-91.07-99.37-168.01-22.1-52.34,4.79-51.45,37.83-52.71l64.88,5.06Z"/>
    <path class="cls-6" d="m449.32,637.98c-28.26,15.96-86.12,1.24-86.12,1.24,0,0,23.5-26.86,12.82-70.13l22.19,11.27,23.84,12.11s1.54,7.64,2.61,21.36c.27,3.53.52,7.48.69,11.79,14.51,4.4,23.98,12.35,23.98,12.35Z"/>
    <path class="cls-1" d="m552.96,884.13c0,4.97-5.72,7.35-6.94,7.59-11.4,2.08-43.23,14.46-71.9,17.3-24.14,2.53-46.56.13-71.18-4.82-3.26-.66-10.92-2.72-11.46-5.84-.68-3.41-94.99-192.26-21.67-273.37,1.72-1.9,16.19,1.52,29.43,4.67,12.22,2.9,23.43,1.28,33.44-2.73l12.41,6.53c15.24,8.49,44.08,38.67,47.45,62.34,1.71,12.04,8.6,20.96,10.59,31.55.74,3.92,1.5,7.75,2.27,11.47,1.5,7.32,3.05,14.28,4.64,20.9,4.31,17.91,8.86,33.32,13.33,46.64,4.76,14.14,9.42,25.9,13.59,35.74,5.41,12.76,9.97,22.29,12.83,29.6,2.02,5.14,3.17,9.17,3.17,12.44Z"/>
    <path class="cls-14" d="m549.79,871.69c-133.13-62.72-179.23-183.16-179.23-183.16,0,0,108.16,39.9,134.84,50.29,1.5,7.32,3.05,14.28,4.64,20.9,4.31,17.91,8.86,33.32,13.33,46.64,4.76,14.14,9.42,25.9,13.59,35.74,5.41,12.76,9.97,22.29,12.83,29.6Z"/>
    <path class="cls-8" d="m925.82,738.29l-28.51-90.42c-2.77-8.78-11.86-12.94-19.79-10.7h-.02c-.42.13-.84.27-1.25.42l-10,3.34s-15.65,16.12-26.89,19.37c-34.54,9.99-67.32-8.42-79.92-42.09-14.02-37.45,2.25-78.58,39.89-90.46,12.88-4.06,38.23,3.51,38.23,3.51l10.18-3.38c5.53-1.68,9.32-7.64,7.35-13.91l-31.39-99.52c-4.29-13.6-18.79-21.15-32.4-16.86l-92.67,29.23c-8.58,2.71-17-4.56-15.58-13.44,1.64-10.27.97-21.06-2.37-31.65-13.13-41.64-61.98-62.13-102.16-38.34-20.23,11.98-35.13,41.39-32.95,64.8,1.62,17.28,8.94,31.97,19.66,42.87,6.13,6.23,3.46,16.74-4.88,19.37l-93.25,29.41c-13.6,4.29-21.14,18.79-16.86,32.38l102.42,324.77c4.19,13.28,18.36,20.66,31.64,16.47l324.41-102.31c13.79-4.35,21.45-19.06,17.1-32.85Z"/>
    <path class="cls-24" d="m535.71,411.47c1.62,17.28,8.94,31.97,19.66,42.87,6.12,6.23,3.46,16.74-4.88,19.37l-93.25,29.41c-13.6,4.29-21.14,18.79-16.86,32.39l102.42,324.77c4.19,13.29,18.36,20.66,31.64,16.47l324.41-102.31c13.79-4.35,21.45-19.06,17.1-32.85l-28.52-90.42c-3.69-11.7-18.59-15.19-27.04-6.3-8.17,8.58-18.66,15.19-30.92,18.74-34.54,9.99-71.41-8.48-84.01-42.15-14.02-37.45,6.34-78.52,43.99-90.39,14.16-4.47,28.69-4.14,41.84.06,8.54,2.73,16.62-5.28,13.92-13.84l-31.39-99.53c-4.29-13.6-18.79-21.15-32.4-16.86l-92.68,29.23c-8.58,2.7-17-4.56-15.58-13.44,1.64-10.27.97-21.06-2.37-31.66-13.13-41.65-61.98-62.13-102.15-38.34-20.23,11.98-35.13,41.39-32.95,64.8Z"/>
    <g>
      <path class="cls-6" d="m627.68,835.34l11.5,4.22s23.04-16.29,37.38,10.2c0,0,5.19,11.57-3.02,14.08-8.21,2.51-5.23.15-16.77,3.99-11.54,3.84-22.91,1.08-27.27-7.17l-7.82-5.74,6-19.59Z"/>
      <path class="cls-1" d="m637.14,851.61c4.25-11.1,6.2-16.12,6.2-16.12,0,0-86.93-70.85-95.78-76.93-6.04-4.14-66.12-49.05-95.42-84.06-14.53-17.36-37.44-25.3-59.6-20.65l-18.25,3.83c-22.03,4.62-29.19,32.51-12.1,47.16,48.14,41.27,129.33,89.13,144.47,99.09,37.58,24.71,120.7,59.35,120.7,59.35,0,0,6.44-2.94,9.78-11.66Z"/>
    </g>
    <path class="cls-11" d="m424.66,613.84c-27.79,1.56-45.87-21.39-45.87-21.39,0,0,12.57-6.96,19.42-12.08l23.84,12.11s1.54,7.64,2.61,21.36Z"/>
    <path class="cls-6" d="m436.5,585.3s-42.11,30.22-60.53,3.71c-18.41-26.51-36.25-40.47-10.15-60.89,26.11-20.42,38.42-13.97,46.71-6.61,8.3,7.36,34.44,55.25,23.96,63.79Z"/>
    <path class="cls-23" d="m416.99,497.56c-1.51-10.19-4.91-17.36-4.91-17.36,0,0-2.64,10.95-22.65,9.44-20.01-1.51-51.71,1.97-62.28,24.76-.67,1.45-1.27,2.95-1.8,4.47-1.91-5.05-2.37-12.63-2.37-12.63-3.8,9.81,0,22.09,0,22.09h0c-.06.36-.1.72-.16,1.08-4.41,3.73-8.12,15.34-8.12,15.34,1.33-3.23,4.58-5.35,7.48-6.65-.09,17.74,7.1,35.08,19.73,40.24,18.46,7.55,18.32,1.79,36.89,14.11,0,0,4.98-6.18,1.58-10.33-3.4-4.15-16.23-10.19-9.06-16.23,7.17-6.04,9.81.75,12.46-3.4,2.64-4.15-10.57-16.23,6.42-27.55,16.99-11.32,28.31-27.18,26.8-37.37Z"/>
  </g>
  <path class="cls-2" d="m1501.05,1314.85s-21.29-31.48-54.62-28.94c-10.13.77-26.59,3.24-45.7,5.87-14.42-50.31-54.16-169.92-107.77-176.65-54.75-6.88,52.39,126.14,96.19,178.21-7.99,1.05-16.29,2.08-24.66,2.99-23.19-24.77-63.61-61.46-97.36-58.64-33.83,2.83,29.51,37.81,75.23,60.69-28.05,2.1-54.65,1.87-70.91-4.42-39.81-15.39-76.4,20.88-76.4,20.88h306Z"/>
  <path class="cls-10" d="m2.92,1314.69h2569.15c1.61,0,2.92,1.31,2.92,2.92v1c0,1.61-1.31,2.92-2.92,2.92H2.92c-1.61,0-2.92-1.31-2.92-2.92v-1c0-1.61,1.31-2.92,2.92-2.92Z"/>
</svg>