<?xml version="1.0" encoding="UTF-8"?>
<svg id="Layer_1" data-name="Layer 1" xmlns="http://www.w3.org/2000/svg" viewBox="0 0 864.06 242.66">
  <defs>
    <style>
      .cls-1 {
        fill: #fff;
      }

      .cls-2 {
        isolation: isolate;
      }
    </style>
  </defs>
  <g class="cls-2">
    <g class="cls-2">
      <path class="cls-1" d="m63,151.14c-6.66,0-12.61-.5-17.86-1.5-11.65-2.23-20.93-7.01-27.85-14.36-7.17-7.57-10.76-16.53-10.76-26.89,0-7.68,2.02-15.47,6.05-23.38,4.03-7.9,9.76-15.42,17.19-22.55-4.61-3.67-6.91-8.07-6.91-13.19,0-7.57,4.67-14.08,14.02-19.54,10.11-5.79,23.56-8.68,40.33-8.68,6.91,0,13.7.28,20.36.83,6.66.56,13.12,1.39,19.4,2.51,3.58-.44,6.91-.78,9.99-1,3.07-.22,5.89-.33,8.45-.33,9.6,0,16.07,1.45,19.4,4.34,2.69,2.45,4.03,4.17,4.03,5.18,0,.45-.26.67-.77.67-1.03,0-2.43-.5-4.23-1.5-3.46-2.11-8.83-2.89-16.13-2.34,16,5.23,28.04,12.69,36.11,22.38,7.04,8.46,10.56,17.87,10.56,28.22,0,12.02-4.16,22.66-12.48,31.9-10.88,11.92-27.59,21.66-50.13,29.23-20.1,6.68-39.69,10.02-58.77,10.02Zm-2.11-5.01c16.9,0,35.4-3.62,55.51-10.86,20.1-7.35,34.25-15.75,42.45-25.22,10.24-11.91,15.36-23.55,15.36-34.91s-4.74-20.65-14.21-28.89c-9.73-8.35-23.43-14.2-41.1-17.54-7.04.22-14.02,1.09-20.94,2.59-6.91,1.5-13.77,3.54-20.55,6.1-15.24,5.79-28.23,14.03-38.99,24.72.89,1.11,1.95,2.37,3.17,3.76,1.22,1.39,1.89,2.15,2.02,2.25,0,.22-.07.39-.19.5-1.54-.33-2.98-.75-4.32-1.25s-2.66-1.03-3.94-1.59c-13.57,14.59-20.36,29.45-20.36,44.59,0,11.69,4.48,20.71,13.44,27.06,8.19,5.79,19.08,8.68,32.65,8.68Zm-25.54-88.68c9.09-7.57,19.3-13.92,30.63-19.04,11.33-5.12,23.72-9.07,37.16-11.86-2.95-.22-5.86-.42-8.74-.58-2.88-.17-5.79-.25-8.74-.25h-3.84c-1.28,0-2.63.06-4.03.17-29.96,1-44.94,8.46-44.94,22.38,0,3.12.83,6.18,2.5,9.19Z"/>
      <path class="cls-1" d="m231.05,141.12c-2.82.22-5.51-.42-8.07-1.92-2.56-1.5-3.84-3.2-3.84-5.09,0-3.45,3.78-10.08,11.33-19.87,8.32-10.8,12.48-17.03,12.48-18.71,0-1-.58-1.56-1.73-1.67-3.71.22-9.48,3.45-17.29,9.69-11.14,9.02-21.58,21.27-31.31,36.74-.26.22-.96.33-2.11.33-5.51,0-8-.67-7.49-2,1.41-3.23,3.87-8.07,7.39-14.53,3.52-6.46,8.1-14.59,13.73-24.38,3.84-6.57,7.75-9.85,11.72-9.85,1.28,0,2.11.28,2.5.83.25.33-2.43,5.12-8.07,14.36-2.69,4.45-4.8,7.99-6.34,10.61-1.54,2.62-2.63,4.32-3.27,5.09,2.18-1.89,4.77-4.23,7.78-7.01,3.01-2.78,6.5-6.01,10.47-9.69,6.27-6.12,13.19-10.69,20.74-13.69,1.79-.67,3.84-1,6.15-1,5.25,0,7.87,1.67,7.87,5.01,0,2.12-1.22,4.62-3.65,7.52-13.83,16.81-20.74,28.12-20.74,33.9,0,1.23.45,2,1.34,2.34,2.05.78,7.11-1.06,15.17-5.51,9.47-5.35,17.54-11.97,24.2-19.88,1.41-1.67,2.69-2.5,3.84-2.5.38,0,.58.11.58.33,0,.56-.58,1.62-1.73,3.17-5.64,7.68-13.44,14.47-23.43,20.38-8.96,5.12-15.05,7.46-18.25,7.01Z"/>
      <path class="cls-1" d="m273.3,140.79c-3.71,0-6.98-.78-9.79-2.34-3.72-2.23-5.57-5.45-5.57-9.69,0-4.56,2.24-10.13,6.72-16.7,6.02-8.57,14.85-16.09,26.5-22.55,2.94-1.67,5.89-2.5,8.83-2.5,3.84,0,6.59,1.06,8.26,3.17,1.02,1.23,1.54,2.62,1.54,4.18,0,4.68-4.35,9.8-13.06,15.37-2.56,1.56-5.28,2.98-8.16,4.26-2.88,1.28-5.99,2.2-9.31,2.76l-8.26,1.5c-3.07,4.79-4.61,8.8-4.61,12.02,0,4.45,3.01,6.68,9.03,6.68,4.74,0,10.5-1.72,17.29-5.18,9.09-4.56,16.9-10.91,23.43-19.04,1.02-1.34,1.98-2,2.88-2,.38,0,.58.22.58.67,0,.56-.45,1.39-1.34,2.5-12.42,16.26-26.44,25.16-42.06,26.72-.51.11-.99.17-1.44.17h-1.44Zm0-25.39c3.58,0,8.19-1.39,13.83-4.18,7.94-3.9,13.51-8.91,16.71-15.03.89-1.56,1.34-2.84,1.34-3.84s-.45-1.5-1.34-1.5c-1.67,0-5.06,1.78-10.18,5.34-3.72,2.78-7.33,5.76-10.85,8.94-3.52,3.17-6.88,6.54-10.08,10.1-.13.11.06.17.58.17Z"/>
    </g>
    <g class="cls-2">
      <path class="cls-1" d="m408.12,155.65c-1.92,0-3.78-.45-5.57-1.34-1.79-.89-2.69-1.89-2.69-3.01,0-2.9,3.65-17.04,10.95-42.42l12.1-42.25c1.28-4.12,1.92-8.02,1.92-11.69,0-12.58-7.68-18.87-23.05-18.87-2.56,0-5.31.17-8.26.5-15.88,2-28.11,7.91-36.68,17.7-7.43,8.24-11.14,17.98-11.14,29.23,0,14.03,5.31,21.04,15.94,21.04,8.45,0,18.95-4.73,31.5-14.2.77-.44,1.34-.67,1.73-.67.89,0,1.34.39,1.34,1.17,0,.67-.45,1.34-1.34,2-14.73,11.13-27.4,16.7-38.03,16.7-6.79,0-12.17-2.23-16.13-6.68-4.23-4.9-6.34-11.47-6.34-19.71,0-12.13,5.38-23.05,16.13-32.73,12.16-10.91,27.66-17.04,46.48-18.37.89-.11,1.73-.17,2.5-.17h2.5c10.88,0,19.08,2.73,24.58,8.18,4.74,4.57,7.11,10.69,7.11,18.37,0,1.67-.1,3.34-.29,5.01-.19,1.67-.55,3.34-1.06,5.01l-9.99,33.24c-5.51,18.82-9.54,34.18-12.1,46.09l4.99-4.18c3.71-3.23,9.79-8.88,18.25-16.95,8.45-8.07,19.21-18.51,32.27-31.31,10.11-9.8,18.92-18.01,26.41-24.63,7.49-6.62,13.8-11.66,18.92-15.11,12.8-8.79,21.77-13.19,26.89-13.19,3.2,0,5.19,2.45,5.95,7.35v.5c-.51-1.67-2.11-2.51-4.8-2.51-3.46,0-8.32,1.56-14.6,4.68-5.12,2.45-12.13,7.46-21.03,15.03-8.9,7.57-19.75,17.65-32.55,30.23-16.39,16.15-29.55,28.98-39.47,38.5-9.92,9.52-16.68,15.72-20.26,18.62-.64.56-1.67.84-3.07.84Z"/>
    </g>
    <g class="cls-2">
      <path class="cls-1" d="m500.69,141.12c-7.43-1.45-11.14-4.01-11.14-7.68,0-1.78,2.5-8.07,7.49-18.87,1.41-2.11,3.29-5.2,5.67-9.27,2.37-4.06,5.34-9.04,8.93-14.95.64-.89,2.05-1.34,4.23-1.34,1.92,0,3.81.25,5.67.75,1.85.5,2.59.98,2.21,1.42-16.9,20.82-25.35,35.24-25.35,43.26,0,2.34.89,3.51,2.69,3.51,3.46,0,8.9-2.11,16.32-6.35,8.84-5.23,16.26-11.52,22.28-18.87,1.28-1.78,2.56-2.67,3.84-2.67.38,0,.58.17.58.5,0,.56-.58,1.62-1.73,3.17-5.64,7.68-13.45,14.47-23.43,20.38-8.96,5.34-15.05,7.68-18.25,7.01Zm29-60.29c-2.05.22-4.26,0-6.63-.67-2.37-.67-3.55-1.5-3.55-2.5,0-.67.25-1.36.77-2.09.51-.72,1.15-1.47,1.92-2.25,2.17-2.34,3.46-3.81,3.84-4.43.38-.61,1.09-.92,2.11-.92,2.94,0,5.25,1.23,6.91,3.67.13.11.19.33.19.67,0,1-.64,2.45-1.92,4.34-1.67,2.67-2.88,4.07-3.65,4.18Z"/>
      <path class="cls-1" d="m553.31,140.79c-2.69,0-5.41-.56-8.16-1.67-2.75-1.11-5.09-2.81-7.01-5.09-1.92-2.28-2.88-5.04-2.88-8.27,0-4.45,1.92-9.52,5.76-15.2,3.84-5.68,8.9-10.69,15.17-15.03,3.97-2.78,7.3-4.68,9.99-5.68,3.84-1.45,7.49-2.17,10.95-2.17,4.35,0,7.75,1.23,10.18,3.67,1.28,1.11,1.92,2.28,1.92,3.51,0,2-1.09,3.01-3.26,3.01-1.54,0-2.69-.83-3.46-2.51-.9-2.34-2.82-3.51-5.76-3.51-3.59,0-7.62,1.73-12.1,5.18-4.99,3.45-9.54,8.18-13.64,14.2-4.48,6.46-6.72,12.14-6.72,17.04s1.66,7.79,4.99,9.02c1.15.45,2.62.67,4.42.67,6.15,0,13.12-2.23,20.93-6.68,8.58-4.79,15.94-10.97,22.09-18.54,1.41-1.67,2.69-2.5,3.84-2.5.38,0,.58.11.58.33,0,.56-.58,1.62-1.73,3.17-5.89,7.91-14.15,14.7-24.78,20.38-4.87,2.56-8.74,4.32-11.62,5.26-2.88.94-6.12,1.42-9.7,1.42Z"/>
      <path class="cls-1" d="m630.71,141.12c-2.82.22-5.51-.42-8.07-1.92-2.56-1.5-3.84-3.2-3.84-5.09,0-3.45,3.78-10.08,11.33-19.87,8.32-10.91,12.48-17.2,12.48-18.87,0-1-.64-1.5-1.92-1.5-3.33,0-9.73,4.29-19.21,12.86-5.64,4.9-10.92,10.16-15.84,15.78-4.93,5.62-9.57,11.55-13.92,17.79-.26.22-.96.33-2.11.33-5.64,0-8.2-.67-7.68-2,2.18-5.12,4.93-10.86,8.26-17.2,3.33-6.35,7.3-13.42,11.91-21.21,15.24-25.61,25.61-40.25,31.11-43.92,1.54-1,3.65-1.5,6.34-1.5,4.48,0,6.72.78,6.72,2.34,0,.33-.38.78-1.15,1.34-16.78,10.8-31.63,31.12-44.56,60.96.13-.11.8-.64,2.02-1.59,1.22-.94,2.98-2.36,5.28-4.26,2.43-1.89,4.51-3.65,6.24-5.26,1.73-1.61,3.23-3.03,4.51-4.26,6.27-6.12,13.19-10.69,20.74-13.69,1.79-.67,3.84-1,6.15-1,5.25,0,7.87,1.67,7.87,5.01,0,2.12-1.22,4.62-3.65,7.52-13.83,16.81-20.74,28.12-20.74,33.9,0,1.23.45,2,1.34,2.34,2.05.78,7.11-1.06,15.17-5.51,9.47-5.35,17.54-11.97,24.2-19.88,1.41-1.67,2.69-2.5,3.84-2.5.38,0,.58.11.58.33,0,.56-.58,1.62-1.73,3.17-5.64,7.68-13.44,14.47-23.43,20.38-8.96,5.12-15.05,7.46-18.25,7.01Z"/>
      <path class="cls-1" d="m706.77,141.29c-2.56,0-4.9-.72-7.01-2.17s-3.36-2.84-3.75-4.17c-.38-1.56,1.98-7.12,7.11-16.7l-4.42,5.51c-1.92,2.45-3.84,4.62-5.76,6.51-1.92,1.89-3.71,3.56-5.38,5.01-4.87,4.01-8.96,5.68-12.29,5.01-7.68-1.56-11.52-5.34-11.52-11.36,0-4.79,2.62-10.91,7.88-18.37,1.66-2.23,3.78-4.45,6.34-6.68,2.56-2.23,5.5-4.4,8.83-6.51,8.58-5.45,16.84-8.18,24.78-8.18,4.86,0,9.47,1.11,13.83,3.34,1.41.89,2.11,1.84,2.11,2.84,0,.78-.26,1.17-.77,1.17-.13,0-.26-.06-.38-.17-2.69-2.56-6.28-3.84-10.76-3.84-5.25,0-10.95,1.73-17.09,5.18-6.15,3.45-11.65,8.07-16.52,13.86-6.91,8.35-10.37,15.14-10.37,20.38,0,3.01,1.21,4.9,3.65,5.68,3.07,1.11,9.6-3.84,19.59-14.86,4.1-4.34,7.52-8.24,10.27-11.69,2.75-3.45,4.96-6.4,6.63-8.85.77-1.22,2.18-1.84,4.22-1.84,3.84,0,5.76,1,5.76,3.01,0,.33-.07.56-.19.67-11.14,15.37-16.71,25.78-16.71,31.23,0,1.34.45,2.06,1.34,2.17,2.69.67,7.17-1.06,13.45-5.18,7.55-4.9,14.66-11.41,21.32-19.54,1.41-1.67,2.69-2.5,3.84-2.5.38,0,.58.11.58.33,0,.56-.58,1.62-1.73,3.17-2.69,3.67-5.67,7.13-8.93,10.36-3.27,3.23-6.88,6.24-10.85,9.02-5.64,4.12-10.25,6.68-13.83,7.68-.9.33-1.99.5-3.27.5Z"/>
      <path class="cls-1" d="m775.91,141.29c-2.56,0-4.9-.72-7.01-2.17-2.11-1.45-3.36-2.84-3.74-4.17-.38-1.56,1.98-7.12,7.11-16.7l-4.42,5.51c-1.92,2.45-3.84,4.62-5.76,6.51-1.92,1.89-3.71,3.56-5.38,5.01-4.87,4.01-8.96,5.68-12.29,5.01-7.68-1.56-11.52-5.34-11.52-11.36,0-4.79,2.62-10.91,7.88-18.37,1.66-2.23,3.78-4.45,6.34-6.68,2.56-2.23,5.5-4.4,8.83-6.51,8.58-5.45,16.83-8.18,24.78-8.18,4.86,0,9.47,1.11,13.83,3.34,1.41.89,2.11,1.84,2.11,2.84,0,.78-.26,1.17-.77,1.17-.13,0-.26-.06-.38-.17-2.69-2.56-6.28-3.84-10.76-3.84-5.25,0-10.95,1.73-17.09,5.18-6.15,3.45-11.65,8.07-16.52,13.86-6.91,8.35-10.37,15.14-10.37,20.38,0,3.01,1.21,4.9,3.65,5.68,3.07,1.11,9.6-3.84,19.59-14.86,4.1-4.34,7.52-8.24,10.27-11.69,2.75-3.45,4.96-6.4,6.63-8.85.77-1.22,2.18-1.84,4.23-1.84,3.84,0,5.76,1,5.76,3.01,0,.33-.07.56-.19.67-11.14,15.37-16.71,25.78-16.71,31.23,0,1.34.45,2.06,1.34,2.17,2.69.67,7.17-1.06,13.44-5.18,7.55-4.9,14.66-11.41,21.32-19.54,1.41-1.67,2.69-2.5,3.84-2.5.38,0,.58.11.58.33,0,.56-.58,1.62-1.73,3.17-2.69,3.67-5.67,7.13-8.93,10.36-3.26,3.23-6.88,6.24-10.85,9.02-5.63,4.12-10.24,6.68-13.83,7.68-.9.33-1.99.5-3.26.5Z"/>
      <path class="cls-1" d="m796.65,141.46c-1.79,0-2.69-.5-2.69-1.5,0-.11.13-.5.38-1.17,6.02-10.02,13.12-24.33,21.32-42.92.89-2,2.43-3.76,4.61-5.26,2.17-1.5,4.03-2.25,5.57-2.25,1.66,0,2.37.78,2.11,2.34-1.28,2.34-2.82,5.34-4.61,9.02-1.79,3.67-3.91,7.96-6.34,12.86,3.58-4.12,8.9-8.74,15.94-13.86,3.58-2.56,6.69-4.68,9.32-6.35,2.62-1.67,4.83-2.89,6.63-3.67,1.79-.78,3.77-1.17,5.95-1.17,2.56,0,4.74.56,6.53,1.67,1.79,1.11,2.69,2.4,2.69,3.84,0,.89-.48,1.87-1.44,2.92-.96,1.06-1.95,1.59-2.98,1.59-.51,0-1.57-.47-3.17-1.42-1.6-.94-3.3-1.42-5.09-1.42-1.92,0-4.16.5-6.72,1.5-16.26,6.35-30.28,20.65-42.06,42.92-.77,1.56-2.75,2.34-5.95,2.34Z"/>
    </g>
  </g>
</svg>